<svg xmlns="http://www.w3.org/2000/svg" width="526" height="526" viewBox="0 0 526 526">
  <g id="Контур_1" data-name="Контур 1" fill="none">
    <path d="M263,0C408.251,0,526,117.749,526,263S408.251,526,263,526,0,408.251,0,263,117.749,0,263,0Z" stroke="none"/>
    <path d="M 263 10 C 123.4953002929688 10 10 123.4953002929688 10 263 C 10 402.5046997070313 123.4953002929688 516 263 516 C 402.5046997070313 516 516 402.5046997070313 516 263 C 516 123.4953002929688 402.5046997070313 10 263 10 M 263 0 C 408.2508544921875 0 526 117.7490844726563 526 263 C 526 408.2508544921875 408.2508544921875 526 263 526 C 117.7490844726563 526 0 408.2508544921875 0 263 C 0 117.7490844726563 117.7490844726563 0 263 0 Z" stroke="none" fill="#707070"/>
  </g>
</svg>
