<svg id="Layer_1" enable-background="new 0 0 512 512" height="512" viewBox="0 0 512 512" width="512">
    <g>
        <circle cx="90" cy="90" r="30"/>
        <path d="m90 240c2.56 0 5.118-.976 7.071-2.929 3.386-3.386 82.929-83.658 82.929-147.071 0-49.626-40.374-90-90-90s-90 40.374-90 90c0 63.413 79.543 143.685 82.929 147.071 1.953 1.953 4.511 2.929 7.071 2.929zm0-220c38.598 0 70 31.402 70 70 0 45.057-50.947 104.722-70 125.457-19.054-20.736-70-80.4-70-125.457 0-38.598 31.402-70 70-70z"/>
        <path d="m412 260c-5.522 0-10 4.477-10 10v142h-56.559c-4.991-44.937-43.196-80-89.441-80s-84.451 35.063-89.441 80h-66.559v-142c0-5.523-4.478-10-10-10s-10 4.477-10 10v152c0 5.523 4.478 10 10 10h76.559c4.991 44.937 43.196 80 89.441 80s84.451-35.063 89.441-80h66.559c5.522 0 10-4.477 10-10v-152c0-5.523-4.478-10-10-10zm-156 232c-38.598 0-70-31.402-70-70s31.402-70 70-70 70 31.402 70 70-31.402 70-70 70z"/>
        <path d="m256 372c-27.57 0-50 22.43-50 50s22.43 50 50 50 50-22.43 50-50-22.43-50-50-50zm0 20c4.625 0 9.009 1.054 12.926 2.932l-39.994 39.994c-1.878-3.917-2.932-8.3-2.932-12.926 0-16.542 13.458-30 30-30zm0 60c-4.625 0-9.009-1.054-12.926-2.932l39.994-39.994c1.878 3.917 2.932 8.3 2.932 12.926 0 16.542-13.458 30-30 30z"/>
        <path d="m506.843 171.714c3.342-9.97 5.157-20.634 5.157-31.714s-1.815-21.744-5.157-31.714c-.197-1.14-.583-2.214-1.131-3.186-14.191-37.981-50.842-65.1-93.712-65.1s-79.521 27.119-93.712 65.1c-.548.973-.934 2.046-1.131 3.186-3.342 9.97-5.157 20.634-5.157 31.714s1.815 21.744 5.157 31.714c.197 1.14.583 2.214 1.131 3.186 14.191 37.981 50.842 65.1 93.712 65.1s79.521-27.119 93.712-65.1c.548-.973.934-2.046 1.131-3.186zm-94.843 48.286c-6.211 0-13.548-7.825-19.146-20.422-2.598-5.846-4.761-12.44-6.456-19.578h51.205c-1.695 7.138-3.858 13.732-6.456 19.578-5.599 12.597-12.936 20.422-19.147 20.422zm-28.96-60c-.682-6.459-1.04-13.158-1.04-20s.357-13.541 1.04-20h57.921c.682 6.459 1.04 13.158 1.04 20s-.357 13.541-1.04 20zm-51.04-20c0-6.904.88-13.605 2.531-20h28.387c-.602 6.429-.919 13.111-.919 20s.317 13.571.919 20h-28.387c-1.651-6.395-2.531-13.096-2.531-20zm80-80c6.211 0 13.548 7.825 19.146 20.422 2.598 5.846 4.761 12.44 6.456 19.578h-51.205c1.695-7.138 3.858-13.732 6.456-19.578 5.599-12.597 12.936-20.422 19.147-20.422zm49.081 60h28.387c1.652 6.395 2.531 13.096 2.531 20s-.88 13.605-2.531 20h-28.387c.602-6.429.919-13.111.919-20s-.317-13.571-.919-20zm20.156-20h-23.11c-2.482-12.031-6.081-22.727-10.57-31.635 14.086 7.02 25.813 18.071 33.68 31.635zm-104.795-31.635c-4.489 8.908-8.087 19.604-10.57 31.635h-23.11c7.868-13.564 19.595-24.615 33.68-31.635zm-33.679 111.635h23.11c2.482 12.031 6.081 22.727 10.57 31.635-14.086-7.02-25.813-18.071-33.68-31.635zm104.795 31.635c4.489-8.908 8.087-19.604 10.57-31.635h23.11c-7.868 13.564-19.595 24.615-33.68 31.635z"/>
    </g>
</svg>
